# xmcd
# Track frame offsets:
# 150
# 12218
# 28922
# 47610
# 63995
# 75835
# 93910
# 108803
# 134429
# 149242
# 164613
# 179417
#
# Disc length: 2583 seconds
# Revision: 0
# Processed by: cddbd v1.5.1PL2 Copyright (c) Steve Scherf et al.
# Submitted via: VisiTrax 2.9.10.228 - For more info visit www.synapsa.com
#
DISCID=9d0a150c
DTITLE=Coad.Peter and The Coad Sisters. - Home Again.
DYEAR=2003
DGENRE=Country
TTITLE0=Life Goes On (Like A Train On The Track).
TTITLE1=Must Have Had A Bit Of Rain.
TTITLE2=If Only I Was Young.
TTITLE3=Travelling Mates.
TTITLE4=Hobo Ben.
TTITLE5=Wagon Road.
TTITLE6=Truckie Bill.
TTITLE7=Soldier Settler's Block.
TTITLE8=That's What Did The Harm.
TTITLE9=Ballad Of Camooweal.
TTITLE10=Ulebar First Night.
TTITLE11=Heartbreak Train.
EXTD=
EXTT0=
EXTT1=
EXTT2=
EXTT3=
EXTT4=
EXTT5=
EXTT6=
EXTT7=
EXTT8=
EXTT9=
EXTT10=
EXTT11=
PLAYORDER=
